<svg version="1.1" id="Layer_1" xmlns="http://www.w3.org/2000/svg" xmlns:xlink="http://www.w3.org/1999/xlink" x="0px" y="0px"
	 width="100%" viewBox="0 0 784 784" enable-background="new 0 0 784 784" xml:space="preserve">
<path fill="#E13A36" opacity="1.000000" stroke="none" 
	d="
M762.000000,785.000000 
	C508.000000,785.000000 254.500000,785.000000 1.000000,785.000000 
	C1.000000,523.666687 1.000000,262.333344 1.000000,1.000000 
	C262.333344,1.000000 523.666687,1.000000 785.000000,1.000000 
	C785.000000,262.333344 785.000000,523.666687 785.000000,785.000000 
	C777.500000,785.000000 770.000000,785.000000 762.000000,785.000000 
M102.858826,436.499878 
	C102.858826,424.857727 102.858826,413.215576 102.858826,400.800476 
	C98.546288,400.215027 94.182182,399.261658 89.789078,399.100922 
	C80.501076,398.761169 77.101265,401.629761 75.568092,410.695343 
	C75.099854,413.464050 75.020851,416.324219 75.019951,419.142578 
	C75.000031,481.448608 75.014915,543.754639 75.026237,606.060669 
	C75.029312,622.976746 77.269051,627.436646 97.469841,624.990112 
	C101.019165,624.560303 102.442078,623.131042 102.398674,619.213745 
	C102.175308,599.058167 102.256798,578.898560 102.360527,558.740967 
	C102.369972,556.907043 102.697861,554.375000 103.891350,553.366028 
	C109.550224,548.582275 115.560844,544.214539 121.655907,539.537720 
	C125.648445,544.939270 129.311050,549.874451 132.952744,554.824951 
	C147.553726,574.673645 162.029648,594.616455 176.849701,614.300110 
	C179.660187,618.032898 183.326447,622.305969 187.462036,623.629333 
	C198.804825,627.259155 210.526016,626.628967 221.587097,621.833496 
	C227.719711,619.174866 229.878967,613.346252 227.447083,607.263794 
	C226.889923,605.870239 224.824585,604.356873 223.320282,604.203491 
	C219.198181,603.783081 214.986343,603.812317 210.846130,604.131531 
	C207.306152,604.404480 205.080551,603.166138 202.910599,600.376343 
	C183.587753,575.533813 164.115570,550.807434 144.706451,526.031799 
	C143.927292,525.037231 143.338852,523.893188 142.581024,522.691040 
	C165.862091,502.990509 188.832977,483.478607 211.918610,464.103424 
	C215.078644,461.451263 216.630417,458.685364 215.444244,454.611328 
	C214.150314,450.167206 211.020508,448.309479 206.624435,447.807953 
	C199.172867,446.957825 193.465012,450.358002 188.118027,454.920685 
	C171.140121,469.408447 154.133789,483.862915 137.133575,498.324524 
	C125.893402,507.886322 114.644875,517.438293 102.854240,527.458557 
	C102.854240,496.910400 102.854240,467.205139 102.858826,436.499878 
M261.057709,452.321716 
	C259.438843,453.159576 257.692383,453.819214 256.225555,454.869415 
	C252.125244,457.805084 251.438187,461.897583 252.869797,467.865662 
	C254.108582,473.029846 257.982605,471.191864 260.886505,471.297913 
	C268.143646,471.562927 275.417023,471.385315 282.506287,471.385315 
	C282.506287,486.633575 282.451508,500.768860 282.518494,514.903503 
	C282.634552,539.386353 282.217957,563.892456 283.163757,588.344727 
	C284.039337,610.982300 296.825592,624.670349 318.220093,625.680603 
	C332.764618,626.367432 347.493500,625.287842 361.999878,623.710266 
	C368.860779,622.964233 375.740509,619.865356 381.977325,616.615234 
	C388.245972,613.348511 390.122437,606.834900 388.157013,600.785400 
	C386.254181,594.928406 381.486023,592.943787 375.840698,595.346436 
	C360.657166,601.808777 345.031311,605.938599 328.290710,604.009338 
	C319.995667,603.053345 315.169373,599.383789 313.050354,591.227356 
	C311.890442,586.762878 311.124756,582.059753 311.098053,577.458923 
	C310.901947,543.628235 310.934998,509.796143 310.910828,475.964508 
	C310.910034,474.840302 311.068970,473.715973 311.157593,472.536743 
	C316.923859,472.536743 322.378876,472.586517 327.832672,472.526672 
	C340.152924,472.391479 352.501373,472.663635 364.783752,471.895874 
	C375.553497,471.222656 379.915161,464.111542 377.430206,453.862976 
	C376.534943,450.170837 374.877869,449.232117 371.270996,449.299988 
	C353.109100,449.641693 334.942139,449.718994 316.776947,449.884613 
	C314.990906,449.900909 313.204559,449.886841 311.019806,449.886841 
	C311.019806,447.607361 310.965302,445.816711 311.028503,444.030212 
	C311.493774,430.873901 312.067261,417.720276 312.347229,404.560272 
	C312.379059,403.064514 311.084442,400.489014 309.931213,400.179596 
	C295.790192,396.385315 282.489868,396.229919 283.032288,418.945068 
	C283.131714,423.110016 283.149567,427.277374 283.164490,431.443787 
	C283.185883,437.409760 283.169922,443.375854 283.169922,449.164246 
	C275.900665,450.155457 268.859009,451.115631 261.057709,452.321716 
M488.386322,452.227692 
	C485.798096,451.169739 483.226990,449.251953 480.618774,449.200104 
	C468.164520,448.952728 455.690643,448.964783 443.245728,449.449615 
	C439.764343,449.585266 436.120575,451.211823 432.976776,452.932037 
	C428.979706,455.119232 427.947968,460.268860 429.176605,465.383698 
	C430.345642,470.250397 433.999451,469.002533 437.113800,469.030426 
	C445.549866,469.105957 453.987061,469.056366 462.759216,469.056366 
	C462.759216,471.345398 462.768341,472.980469 462.757874,474.615448 
	C462.482452,517.607971 462.173187,560.600403 461.975281,603.593323 
	C461.954681,608.063965 462.417603,612.559509 462.971802,617.004150 
	C463.580963,621.889526 466.386047,625.016541 471.483429,625.160278 
	C476.284058,625.295715 481.104645,625.051575 485.904541,624.770935 
	C489.091278,624.584717 490.116364,622.798157 490.119049,619.476501 
	C490.162018,566.482605 490.375793,513.488770 490.440430,460.494873 
	C490.443542,457.940155 489.430359,455.384216 488.386322,452.227692 
M390.825226,499.915649 
	C384.870026,498.808350 382.746216,500.403778 382.638092,506.385742 
	C382.522217,512.797241 382.611938,519.212463 382.611938,525.994568 
	C375.459869,525.994568 368.996063,526.003967 362.532318,525.990906 
	C358.861084,525.983459 356.296417,527.358459 356.282166,531.405334 
	C356.267487,535.574402 359.315979,535.308472 362.226318,535.282898 
	C368.825562,535.224915 375.425659,535.264648 382.432465,535.264648 
	C382.432465,542.579468 382.617462,549.024414 382.356415,555.451294 
	C382.220856,558.788513 383.640228,559.958618 386.621765,560.114685 
	C390.731079,560.329773 393.052399,558.131042 393.222321,553.213196 
	C393.420746,547.469177 393.268646,541.713074 393.268646,535.686523 
	C397.179291,535.686523 400.483582,535.738892 403.785522,535.673340 
	C407.926636,535.591187 412.093719,535.660706 416.197266,535.199280 
	C419.698700,534.805481 420.533386,532.168152 420.303986,528.937317 
	C420.047607,525.327454 417.525208,525.951538 415.236237,525.956055 
	C407.967010,525.970398 400.697693,525.961365 392.939484,525.961365 
	C392.939484,518.706177 393.024872,511.922729 392.878876,505.144226 
	C392.842804,503.468292 392.055206,501.808594 390.825226,499.915649 
M490.826385,422.088470 
	C494.177063,412.331512 491.951050,403.901520 484.756683,400.815857 
	C477.047211,397.509216 469.332672,398.120270 462.406891,402.938141 
	C454.422852,408.492188 453.783569,421.820953 460.949219,427.355560 
	C467.253143,432.224548 485.738495,432.776611 490.826385,422.088470 
M660.152954,718.450806 
	C660.153076,720.782104 659.938049,723.141418 660.236206,725.434021 
	C660.407898,726.754333 661.409546,727.966797 662.037598,729.227783 
	C662.631714,727.928223 663.728455,726.633911 663.741821,725.328369 
	C663.871826,712.673706 663.820251,700.017090 663.820374,687.361084 
	C663.820374,685.184753 663.820374,683.008484 663.820374,680.832153 
	C665.473267,682.250732 666.195740,683.696533 666.817810,685.184326 
	C672.457642,698.672791 678.033630,712.188232 683.774658,725.633362 
	C684.386292,727.065735 685.933350,728.098755 687.046387,729.317078 
	C688.120728,728.050354 689.592896,726.951172 690.207642,725.490967 
	C695.944885,711.863831 701.529480,698.172485 707.175842,684.507019 
	C707.749023,683.119629 708.436768,681.779602 709.071350,680.417603 
	C709.416382,680.538208 709.761414,680.658875 710.106445,680.779480 
	C710.106445,696.871033 710.106445,712.962585 710.106445,729.054138 
	C710.663696,729.230957 711.220886,729.407715 711.778137,729.584473 
	C712.303711,728.244385 713.265930,726.910461 713.284729,725.563354 
	C713.417053,716.073181 713.355408,706.580261 713.355591,697.088257 
	C713.355774,689.481873 713.355652,681.875488 713.355652,674.487305 
	C709.595215,672.987061 708.132874,674.435852 706.923523,677.420654 
	C701.059204,691.894287 695.001892,706.289856 688.989685,720.703308 
	C688.460144,721.972961 687.762695,723.172546 686.744690,725.197205 
	C679.825867,708.667603 673.234314,693.082947 666.807373,677.430725 
	C665.490417,674.223694 663.799622,672.909729 660.152954,674.609192 
	C660.152954,688.864990 660.152954,703.166199 660.152954,718.450806 
M416.688049,678.807495 
	C416.688171,694.294434 416.644928,709.781616 416.762573,725.267700 
	C416.773102,726.658081 417.824493,728.040588 418.392487,729.426819 
	C418.967804,729.212280 419.543091,728.997803 420.118408,728.783264 
	C420.118408,720.694580 420.118408,712.605835 420.118408,704.225647 
	C427.979492,704.225647 435.452362,703.844055 442.866730,704.339172 
	C449.516083,704.783203 452.520233,708.454590 452.897003,715.172546 
	C453.092651,718.661072 452.803345,722.197998 453.271881,725.639709 
	C453.465851,727.064392 455.070740,728.296936 456.033966,729.616821 
	C454.858765,706.025635 454.858765,706.025635 447.327820,702.555542 
	C456.273163,697.044250 459.024902,691.494202 456.800598,683.450073 
	C455.038940,677.079285 449.189148,673.948730 438.901367,673.909851 
	C432.739990,673.886597 426.569611,674.101929 420.420563,673.825439 
	C417.110718,673.676697 416.313995,675.038818 416.688049,678.807495 
M531.371826,683.427734 
	C533.279663,685.092041 531.204163,689.697083 536.065796,689.716980 
	C536.286194,683.327637 533.762207,678.620483 528.605591,675.778320 
	C520.695007,671.418152 512.338440,671.333679 504.150604,675.050964 
	C498.672729,677.537842 496.159058,682.496521 496.596924,688.479736 
	C497.090179,695.219727 501.598328,698.346863 507.344147,700.032166 
	C513.549377,701.852112 519.931152,703.073120 526.126892,704.921204 
	C530.935608,706.355591 534.235657,709.389587 534.257690,714.951904 
	C534.278931,720.312561 531.632080,724.082764 526.152405,726.263123 
	C513.491882,731.300842 502.051392,725.843567 498.158295,712.972961 
	C497.934082,712.231812 497.106140,711.673218 496.559143,711.029663 
	C496.019135,711.825623 494.985992,712.642517 495.018677,713.414307 
	C495.241638,718.678040 497.442108,723.026001 501.673279,726.244263 
	C508.946442,731.776428 523.503784,732.316956 531.069275,727.317688 
	C535.733582,724.235535 538.170288,719.862244 537.843140,714.255920 
	C537.510193,708.550598 534.431946,704.617798 529.117554,702.624756 
	C526.178223,701.522522 523.102783,700.773010 520.069275,699.934814 
	C515.439209,698.655457 510.696960,697.706787 506.181519,696.110779 
	C502.298065,694.738159 500.025757,691.753235 500.000275,687.351990 
	C499.974518,682.900391 502.013245,679.789368 505.807983,677.630310 
	C511.819672,674.210022 526.478516,674.411621 531.371826,683.427734 
M353.538330,729.329163 
	C362.247955,729.255127 370.976105,729.482666 379.673340,729.207642 
	C379.668396,728.340515 379.663452,727.473450 379.658508,726.606384 
	C368.272064,726.606384 356.885620,726.606384 345.598724,726.606384 
	C345.598724,717.762695 345.598724,710.043152 345.598724,702.026184 
	C355.250427,702.026184 364.555359,702.067566 373.858856,701.969299 
	C374.921814,701.958130 375.976501,701.164978 377.035004,700.734314 
	C375.947845,700.157104 374.916229,699.368530 373.757385,699.064148 
	C372.667603,698.777832 371.443604,699.002380 370.278656,699.002319 
	C362.026062,699.002319 353.773438,699.002319 345.421326,699.002319 
	C345.421326,691.379578 345.421326,684.414917 345.421326,676.897827 
	C347.220825,676.897827 348.849365,676.897827 350.477905,676.897827 
	C358.798920,676.897644 367.120544,676.948608 375.440247,676.844177 
	C376.741852,676.827820 378.034607,676.104736 379.331421,675.708435 
	C379.199432,675.203003 379.067413,674.697571 378.935394,674.192139 
	C366.743164,674.192139 354.550934,674.192139 342.279846,674.192139 
	C342.279846,692.635193 342.279846,710.814636 342.279846,729.329102 
	C345.926910,729.329102 349.240753,729.329102 353.538330,729.329163 
M619.254211,697.478394 
	C619.252747,690.650757 619.329285,683.821289 619.171814,676.997253 
	C619.145996,675.881165 618.087952,674.788879 617.506958,673.685608 
	C616.989929,673.908569 616.472839,674.131531 615.955811,674.354431 
	C615.955811,675.667480 615.960022,676.980469 615.955139,678.293457 
	C615.914978,689.116638 616.282715,699.961182 615.719543,710.757141 
	C615.126709,722.121033 609.083008,727.603394 598.303955,727.819519 
	C588.167786,728.022766 582.265015,722.801941 580.627747,712.055664 
	C580.303589,709.928223 580.228333,707.747314 580.218201,705.590271 
	C580.174316,696.264893 580.257507,686.938293 580.126953,677.614563 
	C580.108765,676.309387 579.161194,675.017212 578.643860,673.718994 
	C578.125000,673.903503 577.606201,674.088013 577.087341,674.272522 
	C577.087341,687.071838 576.548218,699.900513 577.245117,712.661743 
	C577.890015,724.471008 586.014099,730.924133 598.138733,730.772400 
	C610.585632,730.616638 618.127258,723.901794 618.996460,711.947510 
	C619.321899,707.471619 619.182007,702.961914 619.254211,697.478394 
M113.516289,677.909180 
	C113.516289,684.824646 113.516289,691.740051 113.516289,698.645996 
	C101.268623,698.645996 89.730766,698.645996 78.007599,698.645996 
	C78.007599,691.454407 78.096054,684.637085 77.929535,677.825928 
	C77.897980,676.535034 76.854927,675.268860 76.278564,673.991272 
	C75.751900,675.342041 74.776443,676.689758 74.767151,678.044067 
	C74.659767,693.691895 74.661438,709.340942 74.762627,724.988831 
	C74.771645,726.382751 75.679756,727.770813 76.170273,729.161621 
	C76.782738,727.754150 77.891762,726.358154 77.924774,724.937195 
	C78.100815,717.360229 78.007698,709.777039 78.007698,702.262024 
	C90.165878,702.262024 101.600029,702.262024 113.519768,702.262024 
	C113.519768,710.294312 113.439400,718.081970 113.607056,725.864380 
	C113.631996,727.021790 114.825043,728.153992 115.477684,729.297852 
	C115.908279,729.069763 116.338875,728.841736 116.769470,728.613647 
	C116.769470,710.505920 116.769470,692.398193 116.769470,674.290527 
	C116.311584,674.060913 115.853699,673.831360 115.395821,673.601807 
	C114.770630,674.733643 114.145432,675.865540 113.516289,677.909180 
M293.144806,710.798889 
	C297.673889,698.708191 302.202942,686.617493 306.732025,674.526855 
	C306.269867,674.184143 305.807739,673.841492 305.345612,673.498779 
	C304.280518,674.824341 302.779785,675.987976 302.217438,677.500488 
	C296.316162,693.371826 290.565033,709.298950 284.378693,726.291992 
	C283.342560,723.690063 282.648285,722.068054 282.045166,720.412903 
	C276.809631,706.044861 271.638458,691.652893 266.292755,677.326050 
	C265.751373,675.875122 264.186401,674.806152 263.096436,673.559937 
	C262.677277,673.907166 262.258148,674.254395 261.838989,674.601624 
	C268.305084,692.033203 274.745392,709.474548 281.304077,726.871277 
	C281.681213,727.871582 283.092865,729.221619 283.898773,729.142578 
	C285.033386,729.031250 286.582611,727.960144 287.029480,726.906921 
	C289.170593,721.861206 290.999786,716.683105 293.144806,710.798889 
M237.011978,728.352234 
	C235.480743,727.664368 233.961823,726.415344 232.416245,726.381470 
	C223.665451,726.189453 214.908295,726.288574 205.759628,726.288574 
	C205.759628,723.721008 205.759674,721.915161 205.759628,720.109314 
	C205.759247,705.952759 205.779953,691.796082 205.744080,677.639648 
	C205.734787,673.971558 205.653381,673.971741 202.366013,674.702271 
	C202.366013,692.825867 202.366013,710.899597 202.366013,729.101257 
	C213.991043,729.101257 225.280182,729.101257 237.011978,728.352234 
M158.000549,715.494141 
	C158.001114,719.314148 158.114227,723.138489 157.967743,726.952820 
	C157.843460,730.189453 159.315689,730.405029 161.997787,729.548706 
	C161.997787,711.892273 161.953842,694.469299 162.037308,677.046936 
	C162.052780,673.816223 160.685364,673.595215 158.000549,674.451111 
	C158.000549,687.954468 158.000549,701.225098 158.000549,715.494141 
z"/>
<path fill="#FFFDFD" opacity="1.000000" stroke="none" 
	d="
M102.856537,436.999878 
	C102.854240,467.205139 102.854240,496.910400 102.854240,527.458557 
	C114.644875,517.438293 125.893402,507.886322 137.133575,498.324524 
	C154.133789,483.862915 171.140121,469.408447 188.118027,454.920685 
	C193.465012,450.358002 199.172867,446.957825 206.624435,447.807953 
	C211.020508,448.309479 214.150314,450.167206 215.444244,454.611328 
	C216.630417,458.685364 215.078644,461.451263 211.918610,464.103424 
	C188.832977,483.478607 165.862091,502.990509 142.581024,522.691040 
	C143.338852,523.893188 143.927292,525.037231 144.706451,526.031799 
	C164.115570,550.807434 183.587753,575.533813 202.910599,600.376343 
	C205.080551,603.166138 207.306152,604.404480 210.846130,604.131531 
	C214.986343,603.812317 219.198181,603.783081 223.320282,604.203491 
	C224.824585,604.356873 226.889923,605.870239 227.447083,607.263794 
	C229.878967,613.346252 227.719711,619.174866 221.587097,621.833496 
	C210.526016,626.628967 198.804825,627.259155 187.462036,623.629333 
	C183.326447,622.305969 179.660187,618.032898 176.849701,614.300110 
	C162.029648,594.616455 147.553726,574.673645 132.952744,554.824951 
	C129.311050,549.874451 125.648445,544.939270 121.655907,539.537720 
	C115.560844,544.214539 109.550224,548.582275 103.891350,553.366028 
	C102.697861,554.375000 102.369972,556.907043 102.360527,558.740967 
	C102.256798,578.898560 102.175308,599.058167 102.398674,619.213745 
	C102.442078,623.131042 101.019165,624.560303 97.469841,624.990112 
	C77.269051,627.436646 75.029312,622.976746 75.026237,606.060669 
	C75.014915,543.754639 75.000031,481.448608 75.019951,419.142578 
	C75.020851,416.324219 75.099854,413.464050 75.568092,410.695343 
	C77.101265,401.629761 80.501076,398.761169 89.789078,399.100922 
	C94.182182,399.261658 98.546288,400.215027 102.858826,400.800476 
	C102.858826,413.215576 102.858826,424.857727 102.856537,436.999878 
z"/>
<path fill="#FFFDFD" opacity="1.000000" stroke="none" 
	d="
M261.437561,452.198792 
	C268.859009,451.115631 275.900665,450.155457 283.169922,449.164246 
	C283.169922,443.375854 283.185883,437.409760 283.164490,431.443787 
	C283.149567,427.277374 283.131714,423.110016 283.032288,418.945068 
	C282.489868,396.229919 295.790192,396.385315 309.931213,400.179596 
	C311.084442,400.489014 312.379059,403.064514 312.347229,404.560272 
	C312.067261,417.720276 311.493774,430.873901 311.028503,444.030212 
	C310.965302,445.816711 311.019806,447.607361 311.019806,449.886841 
	C313.204559,449.886841 314.990906,449.900909 316.776947,449.884613 
	C334.942139,449.718994 353.109100,449.641693 371.270996,449.299988 
	C374.877869,449.232117 376.534943,450.170837 377.430206,453.862976 
	C379.915161,464.111542 375.553497,471.222656 364.783752,471.895874 
	C352.501373,472.663635 340.152924,472.391479 327.832672,472.526672 
	C322.378876,472.586517 316.923859,472.536743 311.157593,472.536743 
	C311.068970,473.715973 310.910034,474.840302 310.910828,475.964508 
	C310.934998,509.796143 310.901947,543.628235 311.098053,577.458923 
	C311.124756,582.059753 311.890442,586.762878 313.050354,591.227356 
	C315.169373,599.383789 319.995667,603.053345 328.290710,604.009338 
	C345.031311,605.938599 360.657166,601.808777 375.840698,595.346436 
	C381.486023,592.943787 386.254181,594.928406 388.157013,600.785400 
	C390.122437,606.834900 388.245972,613.348511 381.977325,616.615234 
	C375.740509,619.865356 368.860779,622.964233 361.999878,623.710266 
	C347.493500,625.287842 332.764618,626.367432 318.220093,625.680603 
	C296.825592,624.670349 284.039337,610.982300 283.163757,588.344727 
	C282.217957,563.892456 282.634552,539.386353 282.518494,514.903503 
	C282.451508,500.768860 282.506287,486.633575 282.506287,471.385315 
	C275.417023,471.385315 268.143646,471.562927 260.886505,471.297913 
	C257.982605,471.191864 254.108582,473.029846 252.869797,467.865662 
	C251.438187,461.897583 252.125244,457.805084 256.225555,454.869415 
	C257.692383,453.819214 259.438843,453.159576 261.437561,452.198792 
z"/>
<path fill="#FFFEFE" opacity="1.000000" stroke="none" 
	d="
M488.638367,452.528259 
	C489.430359,455.384216 490.443542,457.940155 490.440430,460.494873 
	C490.375793,513.488770 490.162018,566.482605 490.119049,619.476501 
	C490.116364,622.798157 489.091278,624.584717 485.904541,624.770935 
	C481.104645,625.051575 476.284058,625.295715 471.483429,625.160278 
	C466.386047,625.016541 463.580963,621.889526 462.971802,617.004150 
	C462.417603,612.559509 461.954681,608.063965 461.975281,603.593323 
	C462.173187,560.600403 462.482452,517.607971 462.757874,474.615448 
	C462.768341,472.980469 462.759216,471.345398 462.759216,469.056366 
	C453.987061,469.056366 445.549866,469.105957 437.113800,469.030426 
	C433.999451,469.002533 430.345642,470.250397 429.176605,465.383698 
	C427.947968,460.268860 428.979706,455.119232 432.976776,452.932037 
	C436.120575,451.211823 439.764343,449.585266 443.245728,449.449615 
	C455.690643,448.964783 468.164520,448.952728 480.618774,449.200104 
	C483.226990,449.251953 485.798096,451.169739 488.638367,452.528259 
z"/>
<path fill="#FEFCFC" opacity="1.000000" stroke="none" 
	d="
M391.219147,500.028534 
	C392.055206,501.808594 392.842804,503.468292 392.878876,505.144226 
	C393.024872,511.922729 392.939484,518.706177 392.939484,525.961365 
	C400.697693,525.961365 407.967010,525.970398 415.236237,525.956055 
	C417.525208,525.951538 420.047607,525.327454 420.303986,528.937317 
	C420.533386,532.168152 419.698700,534.805481 416.197266,535.199280 
	C412.093719,535.660706 407.926636,535.591187 403.785522,535.673340 
	C400.483582,535.738892 397.179291,535.686523 393.268646,535.686523 
	C393.268646,541.713074 393.420746,547.469177 393.222321,553.213196 
	C393.052399,558.131042 390.731079,560.329773 386.621765,560.114685 
	C383.640228,559.958618 382.220856,558.788513 382.356415,555.451294 
	C382.617462,549.024414 382.432465,542.579468 382.432465,535.264648 
	C375.425659,535.264648 368.825562,535.224915 362.226318,535.282898 
	C359.315979,535.308472 356.267487,535.574402 356.282166,531.405334 
	C356.296417,527.358459 358.861084,525.983459 362.532318,525.990906 
	C368.996063,526.003967 375.459869,525.994568 382.611938,525.994568 
	C382.611938,519.212463 382.522217,512.797241 382.638092,506.385742 
	C382.746216,500.403778 384.870026,498.808350 391.219147,500.028534 
z"/>
<path fill="#FEFCFC" opacity="1.000000" stroke="none" 
	d="
M490.633423,422.415436 
	C485.738495,432.776611 467.253143,432.224548 460.949219,427.355560 
	C453.783569,421.820953 454.422852,408.492188 462.406891,402.938141 
	C469.332672,398.120270 477.047211,397.509216 484.756683,400.815857 
	C491.951050,403.901520 494.177063,412.331512 490.633423,422.415436 
z"/>
<path fill="#FCEEEF" opacity="1.000000" stroke="none" 
	d="
M660.152954,717.959106 
	C660.152954,703.166199 660.152954,688.864990 660.152954,674.609192 
	C663.799622,672.909729 665.490417,674.223694 666.807373,677.430725 
	C673.234314,693.082947 679.825867,708.667603 686.744690,725.197205 
	C687.762695,723.172546 688.460144,721.972961 688.989685,720.703308 
	C695.001892,706.289856 701.059204,691.894287 706.923523,677.420654 
	C708.132874,674.435852 709.595215,672.987061 713.355652,674.487305 
	C713.355652,681.875488 713.355774,689.481873 713.355591,697.088257 
	C713.355408,706.580261 713.417053,716.073181 713.284729,725.563354 
	C713.265930,726.910461 712.303711,728.244385 711.778137,729.584473 
	C711.220886,729.407715 710.663696,729.230957 710.106445,729.054138 
	C710.106445,712.962585 710.106445,696.871033 710.106445,680.779480 
	C709.761414,680.658875 709.416382,680.538208 709.071350,680.417603 
	C708.436768,681.779602 707.749023,683.119629 707.175842,684.507019 
	C701.529480,698.172485 695.944885,711.863831 690.207642,725.490967 
	C689.592896,726.951172 688.120728,728.050354 687.046387,729.317078 
	C685.933350,728.098755 684.386292,727.065735 683.774658,725.633362 
	C678.033630,712.188232 672.457642,698.672791 666.817810,685.184326 
	C666.195740,683.696533 665.473267,682.250732 663.820374,680.832153 
	C663.820374,683.008484 663.820374,685.184753 663.820374,687.361084 
	C663.820251,700.017090 663.871826,712.673706 663.741821,725.328369 
	C663.728455,726.633911 662.631714,727.928223 662.037598,729.227783 
	C661.409546,727.966797 660.407898,726.754333 660.236206,725.434021 
	C659.938049,723.141418 660.153076,720.782104 660.152954,717.959106 
z"/>
<path fill="#FDF7F7" opacity="1.000000" stroke="none" 
	d="
M416.688416,678.344177 
	C416.313995,675.038818 417.110718,673.676697 420.420563,673.825439 
	C426.569611,674.101929 432.739990,673.886597 438.901367,673.909851 
	C449.189148,673.948730 455.038940,677.079285 456.800598,683.450073 
	C459.024902,691.494202 456.273163,697.044250 447.327820,702.555542 
	C454.858765,706.025635 454.858765,706.025635 456.033966,729.616821 
	C455.070740,728.296936 453.465851,727.064392 453.271881,725.639709 
	C452.803345,722.197998 453.092651,718.661072 452.897003,715.172546 
	C452.520233,708.454590 449.516083,704.783203 442.866730,704.339172 
	C435.452362,703.844055 427.979492,704.225647 420.118408,704.225647 
	C420.118408,712.605835 420.118408,720.694580 420.118408,728.783264 
	C419.543091,728.997803 418.967804,729.212280 418.392487,729.426819 
	C417.824493,728.040588 416.773102,726.658081 416.762573,725.267700 
	C416.644928,709.781616 416.688171,694.294434 416.688416,678.344177 
M420.019318,683.586426 
	C420.019318,689.338257 420.019318,695.090088 420.019318,700.960876 
	C428.000458,700.960876 435.310547,701.231934 442.590607,700.880676 
	C449.163177,700.563416 453.398254,696.060608 453.916107,689.764282 
	C454.423553,683.594727 451.443939,678.326599 445.317017,677.691833 
	C437.038605,676.834229 428.604553,677.478821 420.019318,677.478821 
	C420.019318,679.316833 420.019318,680.965088 420.019318,683.586426 
z"/>
<path fill="#FCF1F1" opacity="1.000000" stroke="none" 
	d="
M531.187378,683.095703 
	C526.478516,674.411621 511.819672,674.210022 505.807983,677.630310 
	C502.013245,679.789368 499.974518,682.900391 500.000275,687.351990 
	C500.025757,691.753235 502.298065,694.738159 506.181519,696.110779 
	C510.696960,697.706787 515.439209,698.655457 520.069275,699.934814 
	C523.102783,700.773010 526.178223,701.522522 529.117554,702.624756 
	C534.431946,704.617798 537.510193,708.550598 537.843140,714.255920 
	C538.170288,719.862244 535.733582,724.235535 531.069275,727.317688 
	C523.503784,732.316956 508.946442,731.776428 501.673279,726.244263 
	C497.442108,723.026001 495.241638,718.678040 495.018677,713.414307 
	C494.985992,712.642517 496.019135,711.825623 496.559143,711.029663 
	C497.106140,711.673218 497.934082,712.231812 498.158295,712.972961 
	C502.051392,725.843567 513.491882,731.300842 526.152405,726.263123 
	C531.632080,724.082764 534.278931,720.312561 534.257690,714.951904 
	C534.235657,709.389587 530.935608,706.355591 526.126892,704.921204 
	C519.931152,703.073120 513.549377,701.852112 507.344147,700.032166 
	C501.598328,698.346863 497.090179,695.219727 496.596924,688.479736 
	C496.159058,682.496521 498.672729,677.537842 504.150604,675.050964 
	C512.338440,671.333679 520.695007,671.418152 528.605591,675.778320 
	C533.762207,678.620483 536.286194,683.327637 536.065796,689.716980 
	C531.204163,689.697083 533.279663,685.092041 531.187378,683.095703 
z"/>
<path fill="#FDF4F4" opacity="1.000000" stroke="none" 
	d="
M353.046448,729.329102 
	C349.240753,729.329102 345.926910,729.329102 342.279846,729.329102 
	C342.279846,710.814636 342.279846,692.635193 342.279846,674.192139 
	C354.550934,674.192139 366.743164,674.192139 378.935394,674.192139 
	C379.067413,674.697571 379.199432,675.203003 379.331421,675.708435 
	C378.034607,676.104736 376.741852,676.827820 375.440247,676.844177 
	C367.120544,676.948608 358.798920,676.897644 350.477905,676.897827 
	C348.849365,676.897827 347.220825,676.897827 345.421326,676.897827 
	C345.421326,684.414917 345.421326,691.379578 345.421326,699.002319 
	C353.773438,699.002319 362.026062,699.002319 370.278656,699.002319 
	C371.443604,699.002380 372.667603,698.777832 373.757385,699.064148 
	C374.916229,699.368530 375.947845,700.157104 377.035004,700.734314 
	C375.976501,701.164978 374.921814,701.958130 373.858856,701.969299 
	C364.555359,702.067566 355.250427,702.026184 345.598724,702.026184 
	C345.598724,710.043152 345.598724,717.762695 345.598724,726.606384 
	C356.885620,726.606384 368.272064,726.606384 379.658508,726.606384 
	C379.663452,727.473450 379.668396,728.340515 379.673340,729.207642 
	C370.976105,729.482666 362.247955,729.255127 353.046448,729.329102 
z"/>
<path fill="#FEF8F8" opacity="1.000000" stroke="none" 
	d="
M619.254211,697.973022 
	C619.182007,702.961914 619.321899,707.471619 618.996460,711.947510 
	C618.127258,723.901794 610.585632,730.616638 598.138733,730.772400 
	C586.014099,730.924133 577.890015,724.471008 577.245117,712.661743 
	C576.548218,699.900513 577.087341,687.071838 577.087341,674.272522 
	C577.606201,674.088013 578.125000,673.903503 578.643860,673.718994 
	C579.161194,675.017212 580.108765,676.309387 580.126953,677.614563 
	C580.257507,686.938293 580.174316,696.264893 580.218201,705.590271 
	C580.228333,707.747314 580.303589,709.928223 580.627747,712.055664 
	C582.265015,722.801941 588.167786,728.022766 598.303955,727.819519 
	C609.083008,727.603394 615.126709,722.121033 615.719543,710.757141 
	C616.282715,699.961182 615.914978,689.116638 615.955139,678.293457 
	C615.960022,676.980469 615.955811,675.667480 615.955811,674.354431 
	C616.472839,674.131531 616.989929,673.908569 617.506958,673.685608 
	C618.087952,674.788879 619.145996,675.881165 619.171814,676.997253 
	C619.329285,683.821289 619.252747,690.650757 619.254211,697.973022 
z"/>
<path fill="#FEFCFC" opacity="1.000000" stroke="none" 
	d="
M113.518265,677.453247 
	C114.145432,675.865540 114.770630,674.733643 115.395821,673.601807 
	C115.853699,673.831360 116.311584,674.060913 116.769470,674.290527 
	C116.769470,692.398193 116.769470,710.505920 116.769470,728.613647 
	C116.338875,728.841736 115.908279,729.069763 115.477684,729.297852 
	C114.825043,728.153992 113.631996,727.021790 113.607056,725.864380 
	C113.439400,718.081970 113.519768,710.294312 113.519768,702.262024 
	C101.600029,702.262024 90.165878,702.262024 78.007698,702.262024 
	C78.007698,709.777039 78.100815,717.360229 77.924774,724.937195 
	C77.891762,726.358154 76.782738,727.754150 76.170288,729.161621 
	C75.679756,727.770813 74.771645,726.382751 74.762627,724.988831 
	C74.661438,709.340942 74.659767,693.691895 74.767151,678.044067 
	C74.776443,676.689758 75.751900,675.342041 76.278580,673.991272 
	C76.854927,675.268860 77.897980,676.535034 77.929535,677.825928 
	C78.096054,684.637085 78.007599,691.454407 78.007599,698.645996 
	C89.730766,698.645996 101.268623,698.645996 113.516289,698.645996 
	C113.516289,691.740051 113.516289,684.824646 113.518265,677.453247 
z"/>
<path fill="#FCF0F0" opacity="1.000000" stroke="none" 
	d="
M293.042297,711.175476 
	C290.999786,716.683105 289.170593,721.861206 287.029480,726.906921 
	C286.582611,727.960144 285.033386,729.031250 283.898773,729.142578 
	C283.092865,729.221619 281.681213,727.871582 281.304077,726.871277 
	C274.745392,709.474548 268.305084,692.033203 261.838989,674.601624 
	C262.258148,674.254395 262.677277,673.907166 263.096436,673.559937 
	C264.186401,674.806152 265.751373,675.875122 266.292755,677.326050 
	C271.638458,691.652893 276.809631,706.044861 282.045166,720.412903 
	C282.648285,722.068054 283.342560,723.690063 284.378693,726.291992 
	C290.565033,709.298950 296.316162,693.371826 302.217438,677.500488 
	C302.779785,675.987976 304.280518,674.824341 305.345612,673.498779 
	C305.807739,673.841492 306.269867,674.184143 306.732025,674.526855 
	C302.202942,686.617493 297.673889,698.708191 293.042297,711.175476 
z"/>
<path fill="#F9E0E2" opacity="1.000000" stroke="none" 
	d="
M236.790649,728.726746 
	C225.280182,729.101257 213.991043,729.101257 202.366013,729.101257 
	C202.366013,710.899597 202.366013,692.825867 202.366013,674.702271 
	C205.653381,673.971741 205.734787,673.971558 205.744080,677.639648 
	C205.779953,691.796082 205.759247,705.952759 205.759628,720.109314 
	C205.759674,721.915161 205.759628,723.721008 205.759628,726.288574 
	C214.908295,726.288574 223.665451,726.189453 232.416245,726.381470 
	C233.961823,726.415344 235.480743,727.664368 236.790649,728.726746 
z"/>
<path fill="#FFFFFF" opacity="1.000000" stroke="none" 
	d="
M158.000549,714.994934 
	C158.000549,701.225098 158.000549,687.954468 158.000549,674.451111 
	C160.685364,673.595215 162.052780,673.816223 162.037308,677.046936 
	C161.953842,694.469299 161.997787,711.892273 161.997787,729.548706 
	C159.315689,730.405029 157.843460,730.189453 157.967743,726.952820 
	C158.114227,723.138489 158.001114,719.314148 158.000549,714.994934 
z"/>
<path fill="#E13B37" opacity="1.000000" stroke="none" 
	d="
M420.019318,683.099854 
	C420.019318,680.965088 420.019318,679.316833 420.019318,677.478821 
	C428.604553,677.478821 437.038605,676.834229 445.317017,677.691833 
	C451.443939,678.326599 454.423553,683.594727 453.916107,689.764282 
	C453.398254,696.060608 449.163177,700.563416 442.590607,700.880676 
	C435.310547,701.231934 428.000458,700.960876 420.019318,700.960876 
	C420.019318,695.090088 420.019318,689.338257 420.019318,683.099854 
z"/>
</svg>